<svg xmlns="http://www.w3.org/2000/svg" viewBox="0 0 586 134" width="200" height="46"><defs><linearGradient id="a" x1="2.75" y1="42.28" x2="125.52" y2="42.28" gradientUnits="userSpaceOnUse"><stop offset="0" stop-color="#006cff"/><stop offset="1" stop-color="#01b9fb"/></linearGradient></defs><path d="M35.91 97.13c5.11 0 10.22.08 15.32 0 14.76-.27 25.6-9.91 25-24.72-.81-21.52 6.6-22.92 23.8-22.27 8.74.33 17.51.29 26.26 0 5.52-.19 7.56 2.15 8.52 7.46 6.26 34.5-21.14 71.25-56.53 75.36-26.42 3.04-47.56-6.38-63.47-27.76-1.38-1.86-3.7-4-2.36-6.48s4.37-1.5 6.68-1.56c5.59-.16 11.19-.03 16.78-.03z" fill="#fff" fill-rule="evenodd"/><path d="M102 36c-6.4.44-14-.78-21.41 1.17C69.5 40 62.78 48.32 62.42 59.77c-.7 21.92-2.74 24-24.73 24.25-8.75.11-17.5 0-26.25 0-4.54 0-7.07-1.53-7.86-6.51A66.83 66.83 0 0143.42 5.65a65.87 65.87 0 0178.8 21.92c1.5 2.06 4.35 4.18 2.92 7-1.25 2.45-4.4 1.3-6.73 1.36-5.11.07-10.22.07-16.41.07z" fill="#006cff" fill-rule="evenodd"/><path d="M102 36c-6.4.44-14-.78-21.41 1.17C69.5 40 62.78 48.32 62.42 59.77c-.7 21.92-2.74 24-24.73 24.25-8.75.11-17.5 0-26.25 0-4.54 0-7.07-1.53-7.86-6.51A66.83 66.83 0 0143.42 5.65a65.87 65.87 0 0178.8 21.92c1.5 2.06 4.35 4.18 2.92 7-1.25 2.45-4.4 1.3-6.73 1.36-5.11.07-10.22.07-16.41.07z" fill="#006cff" fill-rule="evenodd"/><path d="M102 36c-6.4.44-14-.78-21.41 1.17C69.5 40 62.78 48.32 62.42 59.77c-.7 21.92-2.74 24-24.73 24.25-8.75.11-17.5 0-26.25 0-4.54 0-7.07-1.53-7.86-6.51A66.83 66.83 0 0143.42 5.65a65.87 65.87 0 0178.8 21.92c1.5 2.06 4.35 4.18 2.92 7-1.25 2.45-4.4 1.3-6.73 1.36-5.11.07-10.22.07-16.41.07z" fill-rule="evenodd" fill="url(#a)"/><path d="M210.92 68.07a28.51 28.51 0 00-6.07-4.73 64.73 64.73 0 00-7.9-3.91c-2.12-.88-4-1.73-5.71-2.55a28.7 28.7 0 01-4.24-2.49 10.61 10.61 0 01-2.62-2.61 5.3 5.3 0 01-.88-3 4.94 4.94 0 01.78-2.75 7 7 0 012.28-2.15 12.6 12.6 0 013.71-1.44 25.84 25.84 0 019.18-.22 33.61 33.61 0 014.47.92 31.38 31.38 0 014.37 1.57 24.18 24.18 0 013.9 2.19l.79.54V31l-.32-.12a40.3 40.3 0 00-8.19-2.13 66.71 66.71 0 00-10.15-.75 47.55 47.55 0 00-11.08 1.26 28.5 28.5 0 00-9.27 4 20 20 0 00-6.37 6.89 20.3 20.3 0 00-2.35 10 19.51 19.51 0 004.3 12.7c2.83 3.47 7.17 6.43 12.91 8.82 2.22.91 4.32 1.81 6.22 2.68a34.46 34.46 0 014.93 2.7 12.72 12.72 0 013.2 3 5.85 5.85 0 011.12 3.51 5.34 5.34 0 01-.7 2.67 6.27 6.27 0 01-2.14 2.16 12.2 12.2 0 01-3.71 1.48 22.75 22.75 0 01-5.29.54 30.46 30.46 0 01-10.28-1.82 30.85 30.85 0 01-9.44-5.47l-.82-.69V100l.27.14a35.05 35.05 0 009.5 3.09 62.51 62.51 0 0011.48 1 54 54 0 0011.2-1.08 27.81 27.81 0 009.38-3.75 19.33 19.33 0 006.43-6.87 21.31 21.31 0 002.37-10.47 21.5 21.5 0 00-1.35-7.92 18.66 18.66 0 00-3.91-6.07zM259 48.78a19.27 19.27 0 00-16.4 8.27v-7h-17v76.86h17V97.74c3.34 4.34 8 6.54 14 6.54a21.49 21.49 0 0017.46-8c4.33-5.31 6.53-12.43 6.53-21.17 0-8-1.89-14.48-5.61-19.16s-9.1-7.17-15.98-7.17zM260.26 87a9.28 9.28 0 01-8.09 4 8.7 8.7 0 01-7.08-3.22 12.8 12.8 0 01-2.73-8.46v-4.16c0-4 1-7.17 3-9.55a9.45 9.45 0 017.64-3.55c6.83 0 10.16 4.32 10.16 13.2.02 5.05-.96 8.99-2.9 11.74zm38.03-44.17a10 10 0 007-2.46A8.25 8.25 0 00308 34a8 8 0 00-2.73-6.26 11.35 11.35 0 00-14 0 8 8 0 00-2.72 6.26 8.28 8.28 0 002.75 6.28 9.89 9.89 0 006.99 2.55zm13.55 48.27a4.94 4.94 0 01-3.84-1.54 6.67 6.67 0 01-1.44-4.66V50.05h-16.94v38.4a19.51 19.51 0 001 6.56 14.49 14.49 0 003 5 12.88 12.88 0 004.64 3.19 15.83 15.83 0 006 1.1 46.1 46.1 0 006.8-.49 58.41 58.41 0 006.17-1.25l.37-.1V90.24l-3.23.62a13.5 13.5 0 01-2.53.24zm44.96-42.32a18.77 18.77 0 00-16.4 8.6v-7.33h-17v53h17V72.88a11.74 11.74 0 012.57-7.8 8 8 0 016.47-3c5.47 0 8.13 3.79 8.13 11.58V103h17V70.7c-.02-14.54-5.99-21.92-17.77-21.92zM407 34.11L390 39v11.05h-8.42v12.83H390v23.3c0 12 5.87 18.11 17.45 18.11 4.83 0 8.51-.65 10.94-1.94l.27-.14v-13l-.74.41a10.43 10.43 0 01-5 1.41c-4 0-5.94-2.49-5.94-7.62V62.88h11.67V50.05H407zm42.65 14.67a25.61 25.61 0 00-18.83 7.71c-5.08 5.11-7.66 12.13-7.66 20.85 0 8.42 2.39 15.09 7.1 19.81s11.4 7.13 19.89 7.13c7.73 0 14.11-1.32 19-3.92l.26-.14V87.45l-.76.48a27.47 27.47 0 01-14.81 4c-8.52 0-13-3.38-13.71-10.32H474v-7.26c0-7.81-2.14-14.08-6.35-18.66s-10.31-6.91-18-6.91zm-9.62 22a13.88 13.88 0 013.22-7.14 8.08 8.08 0 016.3-3c5.61 0 8.4 3.33 8.53 10.16zm69.04-22c-9 0-16.22 2.62-21.58 7.78s-8.09 12.31-8.09 21.24c0 7.75 2.54 14.17 7.56 19.08s11.65 7.4 19.73 7.4c6.89 0 12.25-1.08 15.93-3.21l.25-.14V86.82l-.77.51A20.76 20.76 0 01510.65 91c-4.34 0-7.79-1.27-10.25-3.78s-3.71-6-3.71-10.48S498 68.53 500.57 66s6.14-3.89 10.58-3.89a17.87 17.87 0 0110.92 3.66l.8.6V51.43l-.25-.15c-2.8-1.65-7.36-2.5-13.55-2.5zm56.02 0A18.54 18.54 0 00549.41 57V25.09h-17V103h17V72.88a11.9 11.9 0 012.52-7.8 8 8 0 016.52-3c5.26 0 7.82 3.57 7.82 10.92v30h17V70.6c-.02-14.48-6.13-21.82-18.18-21.82z" fill="#fff"/></svg>