<?xml version="1.0" encoding="utf-8"?>
<!-- Generator: Adobe Illustrator 17.0.2, SVG Export Plug-In . SVG Version: 6.00 Build 0)  -->
<!DOCTYPE svg PUBLIC "-//W3C//DTD SVG 1.1//EN" "http://www.w3.org/Graphics/SVG/1.1/DTD/svg11.dtd">
<svg version="1.1" id="Layer_1" xmlns="http://www.w3.org/2000/svg" xmlns:xlink="http://www.w3.org/1999/xlink" x="0px" y="0px"
	 width="271.338px" height="38.601px" viewBox="0 0 271.338 38.601" enable-background="new 0 0 271.338 38.601"
	 xml:space="preserve">
<path fill="none" d="M63.307,0.958L61.88,0l-0.231,0.67C62.205,0.756,62.76,0.845,63.307,0.958z"/>
<polygon fill="none" points="111.703,33.452 112.559,34.026 112.559,33.255 "/>
<polygon fill="#20282C" points="205.192,0.855 200.779,0.855 197.066,12.718 200.018,16.266 "/>
<polygon fill="#20282C" points="155.909,0.855 151.337,0.855 156.466,16.199 160.928,16.721 "/>
<polygon fill="#20282C" points="166.116,33.125 160.928,16.721 156.466,16.199 163.777,38.069 168.137,38.069 174.532,18.314 
	170.893,17.888 "/>
<polygon fill="#20282C" points="190.678,33.125 186.434,19.708 182.302,19.224 188.339,38.069 192.699,38.069 198.392,21.108 
	194.579,20.662 "/>
<polygon fill="#20282C" points="180.471,0.855 176.217,0.907 170.893,17.888 174.532,18.314 178.291,6.703 182.302,19.224 
	186.434,19.708 "/>
<polygon fill="#20282C" points="197.066,12.718 194.579,20.662 198.392,21.108 200.018,16.266 "/>
<polygon fill="#20282C" points="202.859,38.069 207.378,38.069 211.11,29.599 208.218,26.123 "/>
<polygon fill="#20282C" points="243.002,0.855 238.589,0.855 244.144,10.346 247.37,7.879 "/>
<polygon fill="#20282C" points="257.197,25.309 265.044,11.739 258.075,15.363 255.07,20.26 253.503,17.741 249.647,19.746 
	252.997,25.469 252.997,27.502 257.197,27.994 "/>
<polygon fill="#20282C" points="253.503,17.741 247.37,7.879 244.144,10.346 249.647,19.746 "/>
<polygon fill="#20282C" points="271.338,0.855 266.979,0.855 258.075,15.363 265.044,11.739 "/>
<polygon fill="#20282C" points="252.997,27.502 252.997,38.069 257.197,38.069 257.197,27.994 "/>
<path fill="#1E4495" d="M19.594,28.103c-0.482,0.14-0.984,0.238-1.518,0.238c-3.083,0-5.742-2.392-5.742-6.061v-4.265L0,0.875
	v21.403c0,9.64,6.831,15.978,17.222,16.292l5.761-5.761L19.594,28.103z"/>
<path fill="#634A9E" d="M23.446,22.279c0,3.066-1.598,5.169-3.851,5.824l3.388,4.708l7.881-7.881L28.735,1.242l-3.763-0.441h-1.526
	V22.279z"/>
<path fill="#552D8A" d="M31.629,33.449l-0.766-8.52l-7.881,7.881l3.116,4.33C28.276,36.268,30.137,35.022,31.629,33.449z"/>
<path fill="#634A9E" d="M17.222,38.571c0.268,0.008,0.528,0.03,0.801,0.03c3.019,0,5.724-0.52,8.076-1.461l-3.116-4.33
	L17.222,38.571z"/>
<polygon fill="#552D8A" points="35.779,2.067 35.779,0.802 28.695,0.802 28.735,1.242 "/>
<polygon fill="#634A9E" points="28.695,0.802 24.972,0.802 28.735,1.242 "/>
<polygon fill="#1279BF" points="12.334,0.802 0,0.802 0,0.875 12.334,18.014 "/>
<polygon fill="#552D8A" points="30.863,24.929 35.779,20.013 35.779,2.067 28.735,1.242 "/>
<path fill="#552D8A" d="M31.629,33.449c2.654-2.798,4.15-6.61,4.15-11.171v-2.266l-4.916,4.916L31.629,33.449z"/>
<path fill="#EC5725" d="M53.713,23.716c3.512,0.867,6.367,1.542,6.367,3.402c0,1.329-1.169,1.914-2.977,1.914
	c-1.356,0-3.078-0.341-4.903-0.92l-3.2,9.291c1.771,0.446,3.57,0.761,5.351,0.915l14.738-19.756
	c-3.417-2.784-8.535-3.642-11.994-4.664L53.713,23.716z"/>
<path fill="#CA3092" d="M42.907,23.237l-4.572,9.249c2.953,2.255,6.726,3.925,10.664,4.917l3.2-9.291
	C48.945,27.08,45.36,25.28,42.907,23.237z"/>
<path fill="#EF5099" d="M40.781,12.391c0,0.862,0.088,1.648,0.245,2.376L51.844,3.948l-6.242-0.731
	C42.537,5.324,40.781,8.468,40.781,12.391z"/>
<path fill="#EF5099" d="M55.484,0.308c-4.021,0.175-7.387,1.194-9.882,2.909l6.242,0.731L55.484,0.308z"/>
<path fill="#CA3092" d="M53.38,11.221c0-1.115,0.904-1.542,2.286-1.542c0.788,0,1.728,0.137,2.752,0.371l1.765-5.125l-8.34-0.977
	L41.026,14.767c1.306,6.068,7.666,7.708,12.687,8.949l3.381-9.818C54.904,13.25,53.38,12.536,53.38,11.221z"/>
<path fill="#F58023" d="M56.995,38.441c8.4,0,15.684-3.668,15.684-11.961c0-3.72-1.469-6.189-3.591-7.918L54.35,38.318
	C55.24,38.395,56.125,38.441,56.995,38.441z"/>
<path fill="#EC5725" d="M68.479,14.038l3.473-7.276l-0.829-0.557L60.184,4.925l-1.765,5.125
	C61.608,10.78,65.622,12.47,68.479,14.038z"/>
<polygon fill="#F15E22" points="71.952,6.763 72.16,6.327 71.123,6.206 "/>
<path fill="#F15E22" d="M72.16,6.327l0.785-1.645c-2.635-1.668-6.023-2.978-9.638-3.724l7.816,5.247L72.16,6.327z"/>
<path fill="#C62F92" d="M60.184,4.925l1.465-4.255c-1.627-0.253-3.279-0.4-4.919-0.4c-0.425,0-0.835,0.02-1.246,0.038l-3.64,3.64
	L60.184,4.925z"/>
<path fill="#EC5725" d="M60.184,4.925l10.939,1.281l-7.816-5.247c-0.547-0.113-1.102-0.202-1.658-0.288L60.184,4.925z"/>
<polygon fill="#F8B817" points="107.877,28.712 104.644,28.712 107.877,30.883 "/>
<polygon fill="#F15E22" points="75.908,9.419 77.728,6.979 75.873,6.762 75.873,9.395 "/>
<polygon fill="#F8B817" points="98.687,29.655 86.519,38.069 91.63,38.069 100.329,36.068 "/>
<polygon fill="#1F9459" points="91.63,38.069 100.842,38.069 100.329,36.068 "/>
<polygon fill="#F8B817" points="104.644,28.712 100.05,28.712 98.687,29.655 100.329,36.068 107.877,34.332 107.877,30.883 "/>
<polygon fill="#1F9459" points="100.842,38.069 107.877,38.069 107.877,34.332 100.329,36.068 "/>
<polygon fill="#EC5E24" points="93.347,8.808 91.296,0.802 82.337,0.802 77.728,6.979 "/>
<polygon fill="#F15E22" points="88.206,28.712 88.206,24.087 97.261,24.087 97.158,23.686 75.908,9.419 75.873,9.467 75.873,38.069 
	86.519,38.069 98.687,29.655 98.445,28.712 "/>
<polygon fill="#F15E22" points="94.864,14.73 88.206,14.73 88.206,10.158 93.693,10.158 93.347,8.808 77.728,6.979 75.908,9.419 
	97.158,23.686 "/>
<polygon fill="#0081F7" points="75.873,9.395 75.873,9.467 75.908,9.419 "/>
<polygon fill="#8DC440" points="97.756,24.087 105.645,24.087 105.645,14.73 94.864,14.73 97.158,23.686 "/>
<polygon fill="#F15E22" points="98.687,29.655 100.05,28.712 98.445,28.712 "/>
<polygon fill="#EC5E24" points="82.337,0.802 75.873,0.802 75.873,6.762 77.728,6.979 "/>
<polygon fill="#8DC440" points="104.871,10.158 107.399,10.158 107.399,0.802 91.296,0.802 93.347,8.808 "/>
<polygon fill="#8DC440" points="97.261,24.087 97.756,24.087 97.158,23.686 "/>
<polygon fill="#8DC440" points="93.693,10.158 104.871,10.158 93.347,8.808 "/>
<path fill="#00B0AE" d="M138.522,2.106l-11.642,8.052h3.702c2.365,0,3.839,1.269,4.137,3.495l11.715,1.372
	c0.013-0.294,0.043-0.576,0.043-0.879C146.477,8.214,143.652,4.073,138.522,2.106z"/>
<polygon fill="#1F9459" points="112.559,34.026 118.581,38.069 124.893,38.069 124.893,30.418 112.559,33.255 "/>
<path fill="#00B0AE" d="M134.782,14.517c0,2.872-1.542,4.519-4.2,4.519h-5.689v-6.534l-1.2-0.141l-11.134,7.7v13.194l12.334-2.837
	v-2.024h4.625l0.401,0.868l11.116-2.557l-0.458-0.757c3.614-2.208,5.64-5.95,5.858-10.924l-11.715-1.372
	C134.756,13.928,134.782,14.212,134.782,14.517z"/>
<polygon fill="#1F9459" points="133.984,38.069 147.913,38.069 141.035,26.705 129.919,29.262 "/>
<polygon fill="#8DC440" points="123.693,12.361 112.559,11.058 112.559,20.061 "/>
<path fill="#8DC440" d="M124.893,11.531v-1.374h1.986l11.642-8.052c-2.227-0.854-4.883-1.304-7.94-1.304h-18.023v10.256
	l11.134,1.304L124.893,11.531z"/>
<polygon fill="#1F9459" points="112.559,38.069 118.581,38.069 112.559,34.026 "/>
<polygon fill="#00B0AE" points="123.693,12.361 124.893,12.502 124.893,11.531 "/>
<polygon fill="#20282C" points="232.529,28.647 231.959,28.943 235.98,38.069 240.605,38.069 236.392,28.647 "/>
<polygon fill="#20282C" points="213.332,24.566 214.046,22.941 209.865,22.452 208.218,26.123 211.11,29.599 211.524,28.659 
	220.191,28.659 225.545,24.566 "/>
<polygon fill="#20282C" points="223.235,28.647 223.225,28.659 231.833,28.659 231.959,28.943 232.529,28.647 "/>
<polygon fill="none" points="226.954,24.453 225.86,24.325 225.545,24.566 226.854,24.566 "/>
<polygon fill="none" points="226.854,24.566 227.919,24.566 226.954,24.453 "/>
<polygon fill="#20282C" points="232.529,28.647 236.392,28.647 235.663,27.017 "/>
<polygon fill="#20282C" points="228.888,22.01 228.966,22.185 229.611,21.457 "/>
<polygon fill="#20282C" points="227.919,24.566 234.935,25.387 234.567,24.566 230.025,24.566 "/>
<polygon fill="#20282C" points="230.548,20.74 229.611,21.457 228.966,22.185 229.641,23.701 "/>
<polygon fill="#20282C" points="230.708,20.22 229.611,21.457 230.548,20.74 "/>
<polygon fill="#20282C" points="228.888,22.01 229.611,21.457 230.708,20.22 231.487,17.678 223.965,0.855 219.552,0.855 
	209.865,22.452 214.046,22.941 221.626,5.693 "/>
<polygon fill="#20282C" points="234.935,25.387 227.919,24.566 226.854,24.566 223.235,28.647 232.529,28.647 235.663,27.017 "/>
<polygon fill="#20282C" points="225.545,24.566 220.191,28.659 223.225,28.659 223.235,28.647 221.474,28.647 223.235,28.647 
	226.854,24.566 "/>
</svg>
